<svg xmlns="http://www.w3.org/2000/svg" xmlns:xlink="http://www.w3.org/1999/xlink" width="320" zoomAndPan="magnify" viewBox="0 0 240 70.499998" height="94" preserveAspectRatio="xMidYMid meet" version="1.0"><defs><g/></defs><g fill="#3b82f6" fill-opacity="1"><g transform="translate(51.339767, 47.159631)"><g><path d="M 16.578125 -6.421875 C 16.578125 -4.335938 15.820312 -2.691406 14.3125 -1.484375 C 12.8125 -0.285156 10.722656 0.3125 8.046875 0.3125 C 5.578125 0.3125 3.390625 -0.148438 1.484375 -1.078125 L 1.484375 -5.640625 C 3.046875 -4.941406 4.367188 -4.445312 5.453125 -4.15625 C 6.535156 -3.875 7.523438 -3.734375 8.421875 -3.734375 C 9.492188 -3.734375 10.316406 -3.9375 10.890625 -4.34375 C 11.472656 -4.757812 11.765625 -5.375 11.765625 -6.1875 C 11.765625 -6.644531 11.632812 -7.050781 11.375 -7.40625 C 11.125 -7.757812 10.753906 -8.097656 10.265625 -8.421875 C 9.773438 -8.742188 8.773438 -9.265625 7.265625 -9.984375 C 5.847656 -10.648438 4.785156 -11.289062 4.078125 -11.90625 C 3.378906 -12.519531 2.816406 -13.234375 2.390625 -14.046875 C 1.960938 -14.859375 1.75 -15.804688 1.75 -16.890625 C 1.75 -18.941406 2.441406 -20.550781 3.828125 -21.71875 C 5.222656 -22.894531 7.144531 -23.484375 9.59375 -23.484375 C 10.789062 -23.484375 11.9375 -23.335938 13.03125 -23.046875 C 14.125 -22.765625 15.269531 -22.363281 16.46875 -21.84375 L 14.875 -18.03125 C 13.644531 -18.539062 12.625 -18.894531 11.8125 -19.09375 C 11.007812 -19.289062 10.21875 -19.390625 9.4375 -19.390625 C 8.507812 -19.390625 7.796875 -19.171875 7.296875 -18.734375 C 6.796875 -18.304688 6.546875 -17.742188 6.546875 -17.046875 C 6.546875 -16.617188 6.644531 -16.242188 6.84375 -15.921875 C 7.050781 -15.597656 7.375 -15.285156 7.8125 -14.984375 C 8.25 -14.679688 9.285156 -14.140625 10.921875 -13.359375 C 13.085938 -12.328125 14.570312 -11.289062 15.375 -10.25 C 16.175781 -9.207031 16.578125 -7.929688 16.578125 -6.421875 Z M 16.578125 -6.421875 "/></g></g></g><g fill="#3b82f6" fill-opacity="1"><g transform="translate(70.104429, 47.159631)"><g><path d="M 17.078125 0 L 15.71875 -6.1875 L 13.890625 -14.015625 L 13.765625 -14.015625 L 10.546875 0 L 5.34375 0 L 0.3125 -17.703125 L 5.125 -17.703125 L 7.171875 -9.859375 C 7.492188 -8.453125 7.828125 -6.515625 8.171875 -4.046875 L 8.265625 -4.046875 C 8.304688 -4.847656 8.488281 -6.125 8.8125 -7.875 L 9.078125 -9.21875 L 11.25 -17.703125 L 16.578125 -17.703125 L 18.65625 -9.21875 C 18.695312 -8.976562 18.757812 -8.628906 18.84375 -8.171875 C 18.9375 -7.722656 19.023438 -7.242188 19.109375 -6.734375 C 19.191406 -6.222656 19.265625 -5.722656 19.328125 -5.234375 C 19.398438 -4.742188 19.441406 -4.347656 19.453125 -4.046875 L 19.546875 -4.046875 C 19.640625 -4.804688 19.804688 -5.847656 20.046875 -7.171875 C 20.296875 -8.503906 20.472656 -9.398438 20.578125 -9.859375 L 22.703125 -17.703125 L 27.4375 -17.703125 L 22.34375 0 Z M 17.078125 0 "/></g></g></g><g fill="#3b82f6" fill-opacity="1"><g transform="translate(98.763186, 47.159631)"><g><path d="M 9.859375 -14.59375 C 8.835938 -14.59375 8.035156 -14.269531 7.453125 -13.625 C 6.867188 -12.976562 6.535156 -12.054688 6.453125 -10.859375 L 13.234375 -10.859375 C 13.210938 -12.054688 12.898438 -12.976562 12.296875 -13.625 C 11.691406 -14.269531 10.878906 -14.59375 9.859375 -14.59375 Z M 10.546875 0.3125 C 7.691406 0.3125 5.460938 -0.472656 3.859375 -2.046875 C 2.253906 -3.617188 1.453125 -5.84375 1.453125 -8.71875 C 1.453125 -11.6875 2.191406 -13.976562 3.671875 -15.59375 C 5.160156 -17.21875 7.210938 -18.03125 9.828125 -18.03125 C 12.328125 -18.03125 14.273438 -17.316406 15.671875 -15.890625 C 17.066406 -14.460938 17.765625 -12.492188 17.765625 -9.984375 L 17.765625 -7.640625 L 6.34375 -7.640625 C 6.394531 -6.273438 6.800781 -5.207031 7.5625 -4.4375 C 8.320312 -3.664062 9.390625 -3.28125 10.765625 -3.28125 C 11.828125 -3.28125 12.832031 -3.390625 13.78125 -3.609375 C 14.738281 -3.828125 15.734375 -4.179688 16.765625 -4.671875 L 16.765625 -0.9375 C 15.921875 -0.507812 15.019531 -0.195312 14.0625 0 C 13.101562 0.207031 11.929688 0.3125 10.546875 0.3125 Z M 10.546875 0.3125 "/></g></g></g><g fill="#3b82f6" fill-opacity="1"><g transform="translate(118.825955, 47.159631)"><g><path d="M 9.859375 -14.59375 C 8.835938 -14.59375 8.035156 -14.269531 7.453125 -13.625 C 6.867188 -12.976562 6.535156 -12.054688 6.453125 -10.859375 L 13.234375 -10.859375 C 13.210938 -12.054688 12.898438 -12.976562 12.296875 -13.625 C 11.691406 -14.269531 10.878906 -14.59375 9.859375 -14.59375 Z M 10.546875 0.3125 C 7.691406 0.3125 5.460938 -0.472656 3.859375 -2.046875 C 2.253906 -3.617188 1.453125 -5.84375 1.453125 -8.71875 C 1.453125 -11.6875 2.191406 -13.976562 3.671875 -15.59375 C 5.160156 -17.21875 7.210938 -18.03125 9.828125 -18.03125 C 12.328125 -18.03125 14.273438 -17.316406 15.671875 -15.890625 C 17.066406 -14.460938 17.765625 -12.492188 17.765625 -9.984375 L 17.765625 -7.640625 L 6.34375 -7.640625 C 6.394531 -6.273438 6.800781 -5.207031 7.5625 -4.4375 C 8.320312 -3.664062 9.390625 -3.28125 10.765625 -3.28125 C 11.828125 -3.28125 12.832031 -3.390625 13.78125 -3.609375 C 14.738281 -3.828125 15.734375 -4.179688 16.765625 -4.671875 L 16.765625 -0.9375 C 15.921875 -0.507812 15.019531 -0.195312 14.0625 0 C 13.101562 0.207031 11.929688 0.3125 10.546875 0.3125 Z M 10.546875 0.3125 "/></g></g></g><g fill="#3b82f6" fill-opacity="1"><g transform="translate(138.888723, 47.159631)"><g><path d="M 9.984375 -3.53125 C 10.828125 -3.53125 11.84375 -3.710938 13.03125 -4.078125 L 13.03125 -0.484375 C 11.820312 0.046875 10.34375 0.3125 8.59375 0.3125 C 6.664062 0.3125 5.257812 -0.171875 4.375 -1.140625 C 3.5 -2.117188 3.0625 -3.585938 3.0625 -5.546875 L 3.0625 -14.078125 L 0.75 -14.078125 L 0.75 -16.109375 L 3.40625 -17.734375 L 4.796875 -21.46875 L 7.890625 -21.46875 L 7.890625 -17.703125 L 12.84375 -17.703125 L 12.84375 -14.078125 L 7.890625 -14.078125 L 7.890625 -5.546875 C 7.890625 -4.859375 8.082031 -4.347656 8.46875 -4.015625 C 8.851562 -3.691406 9.359375 -3.53125 9.984375 -3.53125 Z M 9.984375 -3.53125 "/></g></g></g><g fill="#3b82f6" fill-opacity="1"><g transform="translate(153.869882, 47.159631)"><g><path d="M 9.859375 -14.59375 C 8.835938 -14.59375 8.035156 -14.269531 7.453125 -13.625 C 6.867188 -12.976562 6.535156 -12.054688 6.453125 -10.859375 L 13.234375 -10.859375 C 13.210938 -12.054688 12.898438 -12.976562 12.296875 -13.625 C 11.691406 -14.269531 10.878906 -14.59375 9.859375 -14.59375 Z M 10.546875 0.3125 C 7.691406 0.3125 5.460938 -0.472656 3.859375 -2.046875 C 2.253906 -3.617188 1.453125 -5.84375 1.453125 -8.71875 C 1.453125 -11.6875 2.191406 -13.976562 3.671875 -15.59375 C 5.160156 -17.21875 7.210938 -18.03125 9.828125 -18.03125 C 12.328125 -18.03125 14.273438 -17.316406 15.671875 -15.890625 C 17.066406 -14.460938 17.765625 -12.492188 17.765625 -9.984375 L 17.765625 -7.640625 L 6.34375 -7.640625 C 6.394531 -6.273438 6.800781 -5.207031 7.5625 -4.4375 C 8.320312 -3.664062 9.390625 -3.28125 10.765625 -3.28125 C 11.828125 -3.28125 12.832031 -3.390625 13.78125 -3.609375 C 14.738281 -3.828125 15.734375 -4.179688 16.765625 -4.671875 L 16.765625 -0.9375 C 15.921875 -0.507812 15.019531 -0.195312 14.0625 0 C 13.101562 0.207031 11.929688 0.3125 10.546875 0.3125 Z M 10.546875 0.3125 "/></g></g></g><g fill="#3b82f6" fill-opacity="1"><g transform="translate(173.932645, 47.159631)"><g><path d="M 12.40625 -18.03125 C 13.0625 -18.03125 13.609375 -17.984375 14.046875 -17.890625 L 13.671875 -13.359375 C 13.285156 -13.460938 12.8125 -13.515625 12.25 -13.515625 C 10.707031 -13.515625 9.503906 -13.117188 8.640625 -12.328125 C 7.785156 -11.535156 7.359375 -10.429688 7.359375 -9.015625 L 7.359375 0 L 2.53125 0 L 2.53125 -17.703125 L 6.1875 -17.703125 L 6.90625 -14.71875 L 7.140625 -14.71875 C 7.691406 -15.71875 8.429688 -16.519531 9.359375 -17.125 C 10.296875 -17.726562 11.3125 -18.03125 12.40625 -18.03125 Z M 12.40625 -18.03125 "/></g></g></g></svg>